<mxfile host="app.diagrams.net" modified="2024-07-19T06:56:21.015Z" agent="Mozilla/5.0 (Windows NT 10.0; Win64; x64) AppleWebKit/537.36 (KHTML, like Gecko) Chrome/126.0.0.0 Safari/537.36" version="24.6.4" etag="vci2EEJUp9uJrPb7ksHg" type="github">
  <diagram name="Page-1" id="wVQDQ7GF8lYSvBIaBqJw">
    <mxGraphModel>
      <root>
        <mxCell id="0" />
        <mxCell id="1" parent="0" />
      </root>
    </mxGraphModel>
  </diagram>
</mxfile>
